<?xml version="1.0" encoding="UTF-8"?>
<svg xmlns="http://www.w3.org/2000/svg" xmlns:xlink="http://www.w3.org/1999/xlink" width="95px" height="80px" viewBox="0 0 80 80" version="1.1">
<g id="surface1">
<path style=" stroke:none;fill-rule:nonzero;fill:rgb(92.156863%,12.54902%,19.215686%);fill-opacity:1;" d="M 25.605469 36.871094 C 23.703125 36.316406 21.730469 36.027344 19.746094 36.019531 C 17.222656 36.011719 14.722656 36.523438 12.402344 37.523438 C 14.25 30.761719 18.683594 19.101562 27.519531 17.789062 C 28.335938 17.667969 29.007812 17.074219 29.230469 16.277344 L 31.160156 9.371094 C 31.324219 8.789062 31.226562 8.160156 30.894531 7.65625 C 30.5625 7.148438 30.027344 6.808594 29.425781 6.726562 C 28.769531 6.640625 28.109375 6.59375 27.449219 6.59375 C 16.84375 6.59375 6.34375 17.664062 1.910156 33.511719 C -0.691406 42.808594 -1.453125 56.789062 4.957031 65.585938 C 8.542969 70.511719 13.773438 73.140625 20.503906 73.402344 L 20.589844 73.402344 C 29.882812 73.394531 37.75 66.53125 39.015625 57.324219 C 40.28125 48.113281 34.554688 39.382812 25.605469 36.871094 Z M 25.605469 36.871094 "/>
<path style=" stroke:none;fill-rule:nonzero;fill:rgb(92.156863%,12.54902%,19.215686%);fill-opacity:1;" d="M 77.597656 45.664062 C 75.175781 41.371094 71.152344 38.210938 66.410156 36.871094 C 64.507812 36.316406 62.535156 36.027344 60.554688 36.019531 C 58.027344 36.011719 55.527344 36.523438 53.207031 37.523438 C 55.054688 30.761719 59.488281 19.101562 68.324219 17.789062 C 69.144531 17.667969 69.8125 17.074219 70.035156 16.277344 L 71.964844 9.371094 C 72.128906 8.789062 72.03125 8.160156 71.699219 7.65625 C 71.367188 7.148438 70.832031 6.808594 70.230469 6.726562 C 69.578125 6.640625 68.917969 6.59375 68.253906 6.59375 C 57.652344 6.59375 47.148438 17.664062 42.714844 33.511719 C 40.113281 42.808594 39.351562 56.789062 45.757812 65.589844 C 49.34375 70.511719 54.578125 73.140625 61.308594 73.402344 L 61.390625 73.402344 C 68.003906 73.398438 74.113281 69.886719 77.449219 64.179688 C 80.785156 58.46875 80.839844 51.421875 77.597656 45.660156 Z M 77.597656 45.664062 "/>
</g>
</svg>
